<svg width="0" height="0" style="display: none;">
    <symbol xmlns="http://www.w3.org/2000/svg" fill="currentColor" viewBox="0 0 24 24" id="ri-search">
        <path d="M10 18a7.952 7.952 0 0 0 4.897-1.688l4.396 4.396 1.414-1.414-4.396-4.396A7.952 7.952 0 0 0 18 10c0-4.411-3.589-8-8-8s-8 3.589-8 8 3.589 8 8 8zm0-14c3.309 0 6 2.691 6 6s-2.691 6-6 6-6-2.691-6-6 2.691-6 6-6z"></path>
    </symbol>
    <symbol xmlns="http://www.w3.org/2000/svg" fill="currentColor" viewBox="0 0 24 24" id="ri-support">
        <path d="M12 2C6.486 2 2 6.486 2 12v4.143C2 17.167 2.897 18 4 18h1a1 1 0 0 0 1-1v-5.143a1 1 0 0 0-1-1h-.908C4.648 6.987 7.978 4 12 4s7.352 2.987 7.908 6.857H19a1 1 0 0 0-1 1V18c0 1.103-.897 2-2 2h-2v-1h-4v3h6c2.206 0 4-1.794 4-4 1.103 0 2-.833 2-1.857V12c0-5.514-4.486-10-10-10z"></path>
    </symbol>
    <symbol xmlns="http://www.w3.org/2000/svg" fill="currentColor" viewBox="0 0 24 24" id="ri-sync">
        <path d="m13 7.101.01.001a4.978 4.978 0 0 1 2.526 1.362 5.005 5.005 0 0 1 1.363 2.528 5.061 5.061 0 0 1-.001 2.016 4.976 4.976 0 0 1-1.363 2.527l1.414 1.414a7.014 7.014 0 0 0 1.908-3.54 6.98 6.98 0 0 0 0-2.819 6.957 6.957 0 0 0-1.907-3.539 6.97 6.97 0 0 0-2.223-1.5 6.921 6.921 0 0 0-1.315-.408c-.137-.028-.275-.043-.412-.063V2L9 6l4 4V7.101zm-7.45 7.623c.174.412.392.812.646 1.19.249.37.537.718.854 1.034a7.036 7.036 0 0 0 2.224 1.501c.425.18.868.317 1.315.408.167.034.338.056.508.078v2.944l4-4-4-4v3.03c-.035-.006-.072-.003-.107-.011a4.978 4.978 0 0 1-2.526-1.362 4.994 4.994 0 0 1 .001-7.071L7.051 7.05a7.01 7.01 0 0 0-1.5 2.224A6.974 6.974 0 0 0 5 12a6.997 6.997 0 0 0 .55 2.724z"></path>
    </symbol>
    <symbol xmlns="http://www.w3.org/2000/svg" fill="currentColor" viewBox="0 0 24 24" id="ri-trash">
        <path d="M15 2H9c-1.103 0-2 .897-2 2v2H3v2h2v12c0 1.103.897 2 2 2h10c1.103 0 2-.897 2-2V8h2V6h-4V4c0-1.103-.897-2-2-2zM9 4h6v2H9V4zm8 16H7V8h10v12z"></path>
    </symbol>
    <symbol xmlns="http://www.w3.org/2000/svg" fill="currentColor" viewBox="0 0 24 24" id="ri-link">
        <path d="M8.465 11.293c1.133-1.133 3.109-1.133 4.242 0l.707.707 1.414-1.414-.707-.707c-.943-.944-2.199-1.465-3.535-1.465s-2.592.521-3.535 1.465L4.929 12a5.008 5.008 0 0 0 0 7.071 4.983 4.983 0 0 0 3.535 1.462A4.982 4.982 0 0 0 12 19.071l.707-.707-1.414-1.414-.707.707a3.007 3.007 0 0 1-4.243 0 3.005 3.005 0 0 1 0-4.243l2.122-2.121z"></path>
        <path d="m12 4.929-.707.707 1.414 1.414.707-.707a3.007 3.007 0 0 1 4.243 0 3.005 3.005 0 0 1 0 4.243l-2.122 2.121c-1.133 1.133-3.109 1.133-4.242 0L10.586 12l-1.414 1.414.707.707c.943.944 2.199 1.465 3.535 1.465s2.592-.521 3.535-1.465L19.071 12a5.008 5.008 0 0 0 0-7.071 5.006 5.006 0 0 0-7.071 0z"></path>
    </symbol>
    <symbol xmlns="http://www.w3.org/2000/svg" fill="currentColor" viewBox="0 0 24 24" id="ri-info">
        <path d="M12 2C6.486 2 2 6.486 2 12s4.486 10 10 10 10-4.486 10-10S17.514 2 12 2zm0 18c-4.411 0-8-3.589-8-8s3.589-8 8-8 8 3.589 8 8-3.589 8-8 8z"></path>
        <path d="M11 11h2v6h-2zm0-4h2v2h-2z"></path>
    </symbol>
    <symbol xmlns="http://www.w3.org/2000/svg" fill="currentColor" viewBox="0 0 24 24" id="ri-home">
        <path d="M12.71 2.29a1 1 0 0 0-1.42 0l-9 9a1 1 0 0 0 0 1.42A1 1 0 0 0 3 13h1v7a2 2 0 0 0 2 2h12a2 2 0 0 0 2-2v-7h1a1 1 0 0 0 1-1 1 1 0 0 0-.29-.71zM6 20v-9.59l6-6 6 6V20z"></path>
    </symbol>
    <symbol xmlns="http://www.w3.org/2000/svg" fill="currentColor" viewBox="0 0 24 24" id="ri-download">
        <path d="m12 16 4-5h-3V4h-2v7H8z"></path>
        <path d="M20 18H4v-7H2v7c0 1.103.897 2 2 2h16c1.103 0 2-.897 2-2v-7h-2v7z"></path>
    </symbol>
    <symbol xmlns="http://www.w3.org/2000/svg" fill="currentColor" viewBox="0 0 24 24" id="ri-up">
        <path d="m6.293 13.293 1.414 1.414L12 10.414l4.293 4.293 1.414-1.414L12 7.586z"></path>
    </symbol>
    <symbol xmlns="http://www.w3.org/2000/svg" fill="currentColor" viewBox="0 0 24 24" id="ri-left">
        <path d="M13.293 6.293 7.586 12l5.707 5.707 1.414-1.414L10.414 12l4.293-4.293z"></path>
    </symbol>
    <symbol xmlns="http://www.w3.org/2000/svg" fill="currentColor" viewBox="0 0 24 24" id="ri-right">
        <path d="M10.707 17.707 16.414 12l-5.707-5.707-1.414 1.414L13.586 12l-4.293 4.293z"></path>
    </symbol>
    <symbol xmlns="http://www.w3.org/2000/svg" fill="currentColor" viewBox="0 0 24 24" id="ri-down">
        <path d="M16.293 9.293 12 13.586 7.707 9.293l-1.414 1.414L12 16.414l5.707-5.707z"></path>
    </symbol>
    <symbol xmlns="http://www.w3.org/2000/svg" fill="currentColor" viewBox="0 0 24 24" id="ri-arrow-left">
        <path d="M12.707 17.293 8.414 13H18v-2H8.414l4.293-4.293-1.414-1.414L4.586 12l6.707 6.707z"></path>
    </symbol>
    <symbol xmlns="http://www.w3.org/2000/svg" fill="currentColor" viewBox="0 0 24 24" id="ri-arrow-right">
        <path d="m11.293 17.293 1.414 1.414L19.414 12l-6.707-6.707-1.414 1.414L15.586 11H6v2h9.586z"></path>
    </symbol>
    <symbol xmlns="http://www.w3.org/2000/svg" fill="currentColor" viewBox="0 0 24 24" id="ri-arrow-up">
        <path d="M11 8.414V18h2V8.414l4.293 4.293 1.414-1.414L12 4.586l-6.707 6.707 1.414 1.414z"></path>
    </symbol>
    <symbol xmlns="http://www.w3.org/2000/svg" fill="currentColor" viewBox="0 0 24 24" id="ri-arrow-down">
        <path d="m18.707 12.707-1.414-1.414L13 15.586V6h-2v9.586l-4.293-4.293-1.414 1.414L12 19.414z"></path>
    </symbol>
</svg>